<?xml version="1.0" encoding="utf-8"?>
<!-- Generator: Adobe Illustrator 23.0.0, SVG Export Plug-In . SVG Version: 6.00 Build 0)  -->
<svg version="1.1" id="Layer_1" xmlns="http://www.w3.org/2000/svg" xmlns:xlink="http://www.w3.org/1999/xlink" x="0px" y="0px"
	 viewBox="0 0 235.33 159" style="enable-background:new 0 0 235.33 159;" xml:space="preserve">
<style type="text/css">
	.st0{fill:none;stroke:#D1D1D1;stroke-linecap:round;stroke-linejoin:round;stroke-miterlimit:10;stroke-dasharray:3;}
	.st1{fill:none;stroke:#D8D8D8;stroke-linecap:round;stroke-miterlimit:10;}
	.st2{fill:none;stroke:#999999;stroke-linecap:round;stroke-miterlimit:10;}
	.st3{fill:none;stroke:#BABABA;stroke-width:0.7;stroke-linecap:round;stroke-miterlimit:10;}
	.st4{fill:#E5E5E5;stroke:#54596E;stroke-width:2;stroke-linecap:round;stroke-linejoin:round;stroke-miterlimit:10;}
	.st5{fill:#AEECFF;stroke:#54596E;stroke-width:2;stroke-linecap:round;stroke-linejoin:round;stroke-miterlimit:10;}
	.st6{fill:none;stroke:#54596E;stroke-width:2;stroke-linecap:round;stroke-linejoin:round;stroke-miterlimit:10;}
	.st7{fill:#A8AEB2;}
	.st8{fill:none;stroke:#A8AEB2;stroke-width:2;stroke-linecap:round;stroke-miterlimit:10;}
	.st9{fill:#D1D1D1;}
</style>
<g>
	<path class="st0" d="M175.44,144.5c0,0,25.75-30.8-15.03-46.59s-32.66,18.98-66.05-12.39c0,0-36.92-40.93,26.69-54.88"/>
	<g>
		<path class="st1" d="M171.19,10.32c-0.04,0-0.09,0-0.13,0c-0.71-3.97-4.17-6.99-8.35-6.99c-4.69,0-8.48,3.8-8.48,8.48
			c0,0.65,0.07,1.27,0.21,1.88c-0.4-0.11-0.82-0.17-1.26-0.17c-2.68,0-4.86,2.18-4.86,4.86c0,2.47,1.84,4.51,4.23,4.82v0.04h18.65
			c3.57,0,6.46-2.89,6.46-6.46S174.76,10.32,171.19,10.32z"/>
	</g>
	<g>
		<g>
			<g>
				<path class="st2" d="M37.55,25.69c0.19-0.86,0.3-1.75,0.3-2.67c0-6.66-5.4-12.06-12.06-12.06c-5.93,0-10.86,4.29-11.87,9.93
					c-0.06,0-0.13,0-0.19,0c-5.07,0-9.19,4.11-9.19,9.19s4.11,9.19,9.19,9.19h16.93"/>
				<path class="st2" d="M4.55,30.08"/>
			</g>
			<path class="st2" d="M35.6,30.23c0-3.26,2.64-5.89,5.89-5.89s5.89,2.64,5.89,5.89h16.9"/>
			<line class="st2" x1="35.54" y1="39.22" x2="45.03" y2="39.22"/>
			<line class="st2" x1="68.21" y1="30.08" x2="71.84" y2="30.08"/>
		</g>
		<g>
			<line class="st2" x1="50.26" y1="10.07" x2="50.26" y2="13.78"/>
			<line class="st2" x1="52.11" y1="11.93" x2="48.41" y2="11.93"/>
		</g>
		<g>
			<line class="st2" x1="60.01" y1="51.28" x2="60.01" y2="54.99"/>
			<line class="st2" x1="61.86" y1="53.13" x2="58.16" y2="53.13"/>
		</g>
		<line class="st2" x1="37.67" y1="62.8" x2="27.31" y2="62.8"/>
		<line class="st2" x1="22.23" y1="62.8" x2="20.23" y2="62.8"/>
	</g>
	<g>
		<path class="st2" d="M95.85,38.91"/>
		<path class="st2" d="M99.77,38.91"/>
	</g>
	<g>
		<g>
			<g>
				<path class="st3" d="M189.8,77.57h18.61c1.99,0,3.59-1.61,3.59-3.59s-1.61-3.59-3.59-3.59c-0.02,0-0.05,0-0.07,0
					c-0.39-2.21-2.32-3.89-4.64-3.89c-2.61,0-4.72,2.11-4.72,4.72c0,0.36,0.04,0.71,0.12,1.04"/>
				<path class="st3" d="M205.54,71.81c0.66-0.86,1.7-1.42,2.86-1.42c1.99,0,3.59,1.61,3.59,3.59"/>
			</g>
			<g>
				<path class="st3" d="M224.21,77.21c3.93,0,7.11-3.19,7.11-7.11c0-3.93-3.19-7.11-7.11-7.11c-0.05,0-0.1,0-0.15,0
					c-0.78-4.37-4.59-7.69-9.19-7.69c-5.16,0-9.34,4.18-9.34,9.34c0,0.71,0.08,1.4,0.23,2.07"/>
				<path class="st3" d="M218.54,65.8c1.3-1.71,3.36-2.82,5.67-2.82c3.93,0,7.11,3.19,7.11,7.11"/>
				<path class="st3" d="M208.31,64.89c0,0,0.17-5.16,4.65-6.78"/>
			</g>
			<line class="st3" x1="186.71" y1="77.57" x2="184.09" y2="77.57"/>
		</g>
		<g>
			<line class="st3" x1="197.2" y1="56.93" x2="197.2" y2="60.21"/>
			<line class="st3" x1="198.84" y1="58.57" x2="195.56" y2="58.57"/>
		</g>
		<g>
			<line class="st3" x1="205.47" y1="84.41" x2="205.47" y2="87.69"/>
			<line class="st3" x1="207.11" y1="86.05" x2="203.83" y2="86.05"/>
		</g>
	</g>
	
		<rect x="151.52" y="110.25" transform="matrix(0.7071 -0.7071 0.7071 0.7071 -42.076 145.1216)" class="st4" width="5.24" height="26.2"/>
	<path class="st5" d="M185.78,151.3l-3.7,3.7c-1.37,1.37-3.58,1.37-4.95,0l-15.58-15.58c-1.37-1.37-1.37-3.58,0-4.95l3.7-3.7
		c1.37-1.37,3.58-1.37,4.95,0l15.58,15.58C187.15,147.71,187.15,149.93,185.78,151.3z"/>
	<circle class="st5" cx="123.26" cy="91.24" r="36.68"/>
	<circle class="st4" cx="123.26" cy="91.24" r="30.85"/>
	<path class="st6" d="M122.98,83.1"/>
	<ellipse class="st7" cx="115.03" cy="83.87" rx="4.01" ry="5.21"/>
	<ellipse class="st7" cx="135.18" cy="83.87" rx="4.01" ry="5.21"/>
	<path class="st8" d="M114.99,100.55c0,0,11.19-4.5,17.55,5.56"/>
	<g>
		<g>
			<path class="st9" d="M123.29,33.63l2.14,3.13c0.07,0.1,0.18,0.16,0.3,0.16c0.01,0,0.01,0,0.02,0c0.13-0.01,0.24-0.08,0.3-0.19
				l7.49-14.18c0-0.01,0-0.02,0.01-0.03c0.01-0.03,0.02-0.05,0.02-0.08c0-0.02,0.01-0.04,0.01-0.05c0-0.03,0-0.05-0.01-0.08
				c0-0.02-0.01-0.04-0.01-0.06c0-0.01,0-0.01-0.01-0.02c-0.01-0.02-0.02-0.03-0.03-0.04c-0.01-0.02-0.02-0.03-0.03-0.05
				c-0.02-0.02-0.05-0.04-0.07-0.06c-0.01-0.01-0.02-0.02-0.03-0.02c0,0,0,0-0.01,0c-0.04-0.02-0.08-0.03-0.13-0.04
				c-0.01,0-0.02,0-0.03,0c-0.03,0-0.07,0-0.1,0.01l-0.01,0c0,0,0,0,0,0l-19.26,5.29c-0.16,0.04-0.26,0.18-0.27,0.34
				c0,0.16,0.1,0.3,0.25,0.35l7.16,2.29l0,0 M115.23,27.68l15.76-4.33l-9.8,6.23L115.23,27.68z M125.69,35.84l-3.91-5.7l0.02-0.08
				c0,0,0-0.01,0-0.01l10.46-6.65L125.69,35.84z"/>
		</g>
	</g>
</g>
</svg>
